<mxfile host="app.diagrams.net" modified="2023-11-11T06:05:23.985Z" agent="Mozilla/5.0 (Macintosh; Intel Mac OS X 10_15_7) AppleWebKit/605.1.15 (KHTML, like Gecko) Version/17.1 Safari/605.1.15" version="22.1.0" etag="QTzGoqtXbm7Na-CPfWOS" type="github">
  <diagram name="Page-1" id="3txFmFTTC-RryVnkoHKH">
    <mxGraphModel>
      <root>
        <mxCell id="0" />
        <mxCell id="1" parent="0" />
      </root>
    </mxGraphModel>
  </diagram>
</mxfile>
